<?xml version="1.0" encoding="UTF-8"?>
<svg version="1.1" xmlns="http://www.w3.org/2000/svg" width="1024" height="1024">
<path d="M0 0 C337.92 0 675.84 0 1024 0 C1024 337.92 1024 675.84 1024 1024 C686.08 1024 348.16 1024 0 1024 C0 686.08 0 348.16 0 0 Z " fill="#457BFE" transform="translate(0,0)"/>
<path d="M0 0 C337.92 0 675.84 0 1024 0 C1024 337.92 1024 675.84 1024 1024 C686.08 1024 348.16 1024 0 1024 C0 686.08 0 348.16 0 0 Z M286 91 C284.75030615 91.23693919 283.5006123 91.47387838 282.21304893 91.71799755 C279.30589637 92.30124901 276.43832326 92.96646354 273.5625 93.6875 C272.53229736 93.94168701 271.50209473 94.19587402 270.44067383 94.45776367 C212.19041489 109.31266903 159.23438107 145.67431995 128.27050781 197.79199219 C111.20252653 227.45433321 100.38200378 258.0207383 96 292 C95.91701857 292.63283152 95.83403714 293.26566303 95.74854112 293.91767126 C94.8176935 301.92762514 94.85437001 309.92796667 94.85955811 317.97862244 C94.85697053 319.59318235 94.85395628 321.20774162 94.8505547 322.82230002 C94.84252684 327.23980326 94.84069749 331.65729022 94.83995724 336.0747999 C94.83809917 340.847514 94.83054783 345.62021981 94.82382202 350.39292908 C94.81026558 360.82356806 94.80421746 371.25420318 94.79981136 381.6848495 C94.79704295 388.20894816 94.79280438 394.73304535 94.78830719 401.25714302 C94.77611533 419.35011038 94.76581761 437.44307656 94.7624321 455.53604794 C94.76221253 456.69314338 94.76199297 457.85023883 94.76176675 459.04239777 C94.76154847 460.20214888 94.76133019 461.36189998 94.7611053 462.55679506 C94.76066185 464.9065971 94.76021528 467.25639914 94.75976562 469.60620117 C94.7595442 470.771766 94.75932277 471.93733082 94.75909463 473.13821579 C94.75515379 491.98868191 94.73772125 510.8391092 94.7144061 529.68956035 C94.6906159 549.08215165 94.67822668 568.47472354 94.67706418 587.86732966 C94.67615143 598.73949045 94.6705011 609.61160071 94.65224457 620.48374748 C94.63673934 629.74968103 94.63178369 639.01554845 94.63998267 648.28149252 C94.6438534 652.99775234 94.64313811 657.71387944 94.62892532 662.43012238 C94.46213588 721.31330985 105.47338237 778.37907444 144 825 C144.45987305 825.56138672 144.91974609 826.12277344 145.39355469 826.70117188 C155.79681372 839.33722245 166.97901259 851.02944472 180 861 C180.54317871 861.41958984 181.08635742 861.83917969 181.64599609 862.27148438 C223.36835358 894.33859785 274.36796278 912.40058223 327.07510376 912.26069641 C328.72330566 912.26372595 330.37150615 912.2676194 332.01970422 912.27228898 C336.49754546 912.28247474 340.97530579 912.2804115 345.45315337 912.27610838 C350.30270079 912.2736238 355.15222959 912.28267674 360.00177002 912.29014587 C369.48349243 912.30284775 378.96518646 912.30469216 388.44691594 912.30234561 C396.16132377 912.30055698 403.87572304 912.30232374 411.59012985 912.30657005 C412.69133039 912.30716524 413.79253093 912.30776043 414.92710119 912.30837366 C417.16478329 912.30958551 419.40246539 912.31079964 421.64014749 912.31201603 C442.59178805 912.32287451 463.54341248 912.3207373 484.49505393 912.31463119 C503.61937382 912.30946534 522.74364273 912.32071174 541.86795254 912.33972941 C561.55003259 912.3591502 581.23208857 912.36735627 600.91417825 912.36360615 C611.94595225 912.3617003 622.97768288 912.36412114 634.00944901 912.37832069 C643.40269205 912.39028978 652.79586505 912.39157797 662.18910916 912.37953053 C666.9717515 912.37367997 671.75426607 912.37243505 676.53689957 912.38453293 C695.5612481 912.4294115 714.20306438 912.37366694 733 909 C734.23180811 908.78555898 735.46361622 908.57111795 736.73275185 908.35017872 C739.42389937 907.858131 742.08371373 907.29893867 744.75 906.6875 C745.69496338 906.47440186 746.63992676 906.26130371 747.61352539 906.04174805 C785.49114732 897.24935374 819.95976506 879.83534415 849 854 C849.50337891 853.55833496 850.00675781 853.11666992 850.52539062 852.66162109 C893.56834807 814.82636421 919.23636036 760.75110749 925 704 C925.08645816 701.58609333 925.12894926 699.17028168 925.13142776 696.75482845 C925.1334804 696.06869708 925.13553303 695.3825657 925.13764787 694.67564246 C925.14327672 692.38953237 925.14186574 690.10348331 925.14044189 687.81736755 C925.14302793 686.1563102 925.14604175 684.49525346 925.1494453 682.83419758 C925.1574912 678.27903597 925.15930353 673.72389014 925.16004276 669.16872227 C925.16189764 664.25153567 925.16944739 659.33435718 925.17617798 654.41717529 C925.18974698 643.66644869 925.19578442 632.91572583 925.20018864 622.16499209 C925.20295475 615.44427903 925.2071929 608.7235674 925.21169281 602.0028553 C925.223886 583.37467127 925.23418366 564.74648838 925.2375679 546.11830044 C925.23789725 544.33057695 925.23789725 544.33057695 925.23823325 542.50673783 C925.23845153 541.31214426 925.23866981 540.11755069 925.2388947 538.88675731 C925.23933816 536.46625292 925.23978472 534.04574853 925.24023438 531.62524414 C925.24056652 529.82428139 925.24056652 529.82428139 925.24090537 527.98693556 C925.24484772 508.56135299 925.2622843 489.13580805 925.2855939 469.71024 C925.30936333 449.73916502 925.32177237 429.76810888 925.32293582 409.79701954 C925.3238497 398.59519816 925.32952888 387.39342578 925.34775543 376.19161797 C925.36323239 366.64628088 925.3682326 357.10100792 925.36001733 347.55566066 C925.35613689 342.69409268 925.35691115 337.83265351 925.37107468 332.97110176 C925.43475766 309.78858779 925.38188592 286.85241569 919.4375 264.25 C919.18556885 263.27796631 918.9336377 262.30593262 918.67407227 261.30444336 C909.88144802 228.7528609 894.8747739 197.79140008 873 172 C872.13839586 170.9551909 871.27778427 169.90956278 870.41796875 168.86328125 C862.00730653 158.69165987 853.07718415 149.45402532 842.65771484 141.29833984 C841.46695549 140.36572449 840.28024787 139.4279272 839.09619141 138.48681641 C829.46868918 130.84502961 819.7275798 123.99830991 809 118 C808.42137207 117.66693848 807.84274414 117.33387695 807.24658203 116.99072266 C773.46155632 97.55652322 733.74792046 87.63747985 694.88656616 87.73930359 C693.22201544 87.73627497 691.55746611 87.73238197 689.89291918 87.72771102 C685.365282 87.71751345 680.83772473 87.7195916 676.31008124 87.72389162 C671.40872855 87.72637401 666.50739435 87.71732593 661.60604858 87.70985413 C652.02091816 87.69714621 642.4358158 87.6953086 632.85067837 87.69765439 C625.05280937 87.69944235 617.25494883 87.69767768 609.45708084 87.69342995 C608.34435464 87.69283476 607.23162844 87.69223957 606.08518327 87.69162634 C603.8241459 87.6904145 601.56310853 87.68920037 599.30207117 87.68798397 C578.12727946 87.67712315 556.95250371 87.67926381 535.77771111 87.68536881 C516.44572345 87.69053477 497.11378623 87.67928839 477.78180854 87.66027059 C457.89071274 87.64085412 437.99964074 87.63264298 418.10853541 87.63639385 C406.95773001 87.63830036 395.80696751 87.63587231 384.65616989 87.62167931 C375.16149834 87.60971576 365.66689608 87.60841592 356.17222349 87.62046947 C351.33705557 87.62632387 346.50201407 87.62755401 341.66685486 87.61546707 C313.70494094 87.50314212 313.70494094 87.50314212 286 91 Z " fill="#FEFEFE" transform="translate(0,0)"/>
<path d="M0 0 C9.3015526 8.58878995 15.13400452 20.08186467 16.12225914 32.71941185 C16.21885823 36.69594705 16.22353615 40.66631037 16.19213867 44.64331055 C16.19129069 46.16215498 16.19177088 47.68100064 16.19346619 49.19984436 C16.19432089 53.29008163 16.1767811 57.38005068 16.15574431 61.47022605 C16.13688913 65.75697678 16.13522015 70.04373483 16.13166809 74.33052063 C16.12237345 82.4333864 16.09779491 90.5361296 16.06761962 98.63894159 C16.0339949 107.86995897 16.01756938 117.10098245 16.00253332 126.33204591 C15.97124282 145.30737073 15.91853296 164.28258173 15.8515625 183.2578125 C16.77926956 183.24893005 17.70697662 183.24004761 18.66279602 183.230896 C27.4448565 183.15044216 36.22679155 183.08969237 45.00913715 183.05056381 C49.52326104 183.02977047 54.03707806 183.00160555 58.55102539 182.95605469 C62.91474065 182.91230001 67.27816245 182.88861347 71.64208031 182.87830353 C73.29931438 182.87096491 74.95653406 182.85663554 76.61364174 182.83489227 C91.99145973 182.64130976 104.37146615 185.7290061 116.109375 196.2890625 C125.55063428 206.19699999 130.27738107 218.3804293 130.21728516 231.98266602 C129.94862305 242.73777698 126.4487776 251.81337717 119.8515625 260.2578125 C119.2534375 261.07121094 118.6553125 261.88460938 118.0390625 262.72265625 C115.54951559 265.60786329 112.96599524 267.62570609 109.8515625 269.8203125 C108.8203125 270.56410156 107.7890625 271.30789063 106.7265625 272.07421875 C96.15557857 278.49768459 85.24294563 278.80819398 73.2734375 278.6484375 C71.60907681 278.64095945 69.94470719 278.63527393 68.28033447 278.63128662 C63.94011302 278.61615307 59.60044332 278.5769805 55.26043701 278.5324707 C50.81562764 278.49124987 46.37072745 278.47321887 41.92578125 278.453125 C33.23412429 278.41047154 24.5429124 278.34237325 15.8515625 278.2578125 C15.86155525 279.32657623 15.86155525 279.32657623 15.87174988 280.41693115 C15.93224752 287.18256733 15.97773125 293.94816228 16.00699902 300.7140007 C16.02255255 304.19112584 16.04359787 307.66802461 16.07788086 311.14501953 C16.11718028 315.15659567 16.13135671 319.16793981 16.14453125 323.1796875 C16.16001511 324.40830505 16.17549896 325.63692261 16.19145203 326.902771 C16.19436512 342.07702005 12.20165996 354.09370907 1.90234375 365.375 C-10.16483523 376.45381956 -23.20038027 379.09335827 -38.98535156 378.43701172 C-43.81655032 378.03677471 -47.8745556 376.45269284 -52.1484375 374.2578125 C-53.00824219 373.82210938 -53.86804688 373.38640625 -54.75390625 372.9375 C-66.66676763 366.34127116 -73.39590864 356.8448522 -78.1484375 344.2578125 C-79.05870926 340.47792295 -79.27000238 336.97365089 -79.26196289 333.09057617 C-79.26188736 331.86968796 -79.26181183 330.64879974 -79.26173401 329.39091492 C-79.25657272 328.08242081 -79.25141144 326.7739267 -79.24609375 325.42578125 C-79.24422711 324.06529289 -79.24280437 322.70480385 -79.24180603 321.34431458 C-79.23800025 317.77525963 -79.22818664 314.20624581 -79.21710205 310.63720703 C-79.20684613 306.99056555 -79.20229947 303.34391739 -79.19726562 299.69726562 C-79.18656253 292.55076449 -79.16950954 285.40429119 -79.1484375 278.2578125 C-80.06412601 278.26149967 -80.97981451 278.26518684 -81.92325115 278.26898575 C-104.24284344 278.3574685 -126.56240534 278.42358613 -148.88213634 278.46506119 C-159.67596437 278.48565327 -170.46967505 278.51370959 -181.26342773 278.55957031 C-190.67540437 278.59954093 -200.08729598 278.62526967 -209.49935514 278.63416648 C-214.47923744 278.63936394 -219.45887657 278.65150954 -224.43868065 278.68073273 C-229.13446947 278.70806362 -233.82991701 278.71622208 -238.52577782 278.71024323 C-240.24093486 278.71133561 -241.95610438 278.71918356 -243.67119217 278.7346344 C-260.02532116 278.87462707 -272.3519768 275.94103903 -284.8984375 264.8203125 C-295.20017588 253.08777712 -300.16867781 240.97707057 -299.1484375 225.2578125 C-297.12222233 211.79550154 -290.77918304 200.41363247 -279.9609375 192.1328125 C-274.95774818 188.59677464 -269.98438818 186.09910175 -264.1484375 184.2578125 C-263.59488461 184.0810325 -263.04133171 183.90425249 -262.47100449 183.72211552 C-259.24781485 183.07776955 -256.06828302 183.1237959 -252.79595947 183.13755798 C-251.68214846 183.13627635 -251.68214846 183.13627635 -250.54583621 183.13496882 C-248.05690014 183.13332127 -245.56803142 183.13882354 -243.07910156 183.14428711 C-241.29528302 183.14456916 -239.51146435 183.14441089 -237.72764587 183.1438446 C-232.88298578 183.14355734 -228.03835037 183.14944264 -223.19369602 183.15641856 C-218.13147163 183.16266388 -213.06924669 183.16325683 -208.00701904 183.16444397 C-198.42004444 183.1675538 -188.83308122 183.17576252 -179.24611163 183.18579346 C-168.33208054 183.19696538 -157.41804892 183.20246777 -146.50401354 183.20748889 C-124.05214854 183.21794541 -101.60029366 183.23553814 -79.1484375 183.2578125 C-79.15212467 182.47704283 -79.15581184 181.69627316 -79.15961075 180.8918438 C-79.2481708 161.84322384 -79.31424843 142.79464528 -79.35568619 123.74586296 C-79.37626079 114.53378758 -79.40428312 105.32185011 -79.45019531 96.10986328 C-79.49022007 88.07528336 -79.51590734 80.04080338 -79.52479148 72.00612652 C-79.52997991 67.75669352 -79.54206653 63.5075463 -79.57135773 59.25820541 C-79.59877486 55.24774603 -79.60683024 51.23768654 -79.60086823 47.22714233 C-79.60195684 45.76557355 -79.60975285 44.30398953 -79.6252594 42.84250259 C-79.76852471 28.6266169 -77.51056623 16.3059178 -68.1484375 5.2578125 C-67.601875 4.61199219 -67.0553125 3.96617187 -66.4921875 3.30078125 C-48.55402081 -16.11813033 -19.98278867 -16.204225 0 0 Z " fill="#FEFEFE" transform="translate(589.1484375,294.7421875)"/>
<path d="M0 0 C4.58876831 2.85857698 8.2930618 6.01314977 12.0625 9.875 C12.56587891 10.37902344 13.06925781 10.88304687 13.58789062 11.40234375 C16.93020086 14.78356833 20.00006772 18.31200985 23 22 C22.67 22.66 22.34 23.32 22 24 C18.31082102 20.41174081 14.74301779 16.76857661 11.375 12.875 C7.37782215 8.25215384 7.37782215 8.25215384 3 4 C2.01 4 1.02 4 0 4 C0 2.68 0 1.36 0 0 Z " fill="#3871FE" transform="translate(848,147)"/>
<path d="M0 0 C0.33 0.66 0.66 1.32 1 2 C-0.97583004 7.23013834 -3.66637965 9.72570907 -8 13 C-8.66 12.67 -9.32 12.34 -10 12 C-9.44570313 11.38511719 -8.89140625 10.77023437 -8.3203125 10.13671875 C-7.59585938 9.32847656 -6.87140625 8.52023437 -6.125 7.6875 C-5.40570312 6.88699219 -4.68640625 6.08648438 -3.9453125 5.26171875 C-1.88394498 2.95810917 -1.88394498 2.95810917 0 0 Z " fill="#2F6BFE" transform="translate(598,650)"/>
</svg>
